HIERARCHY
ROOT hip
{
  OFFSET -103.841 71.2662 -158.348
  CHANNELS 6 Xposition Yposition Zposition Zrotation Xrotation Yrotation
  JOINT abdomen
  {
    OFFSET 0 20.6881 -0.73152
    CHANNELS 3 Zrotation Xrotation Yrotation
    JOINT chest
    {
      OFFSET 0 11.7043 -0.48768
      CHANNELS 3 Zrotation Xrotation Yrotation
      JOINT neck
      {
        OFFSET 0 22.1894 -2.19456
        CHANNELS 3 Zrotation Xrotation Yrotation
        JOINT head
        {
          OFFSET -0.24384 7.07133 1.2192
          CHANNELS 3 Zrotation Xrotation Yrotation
          JOINT leftEye
          {
            OFFSET 4.14528 8.04674 8.04672
            CHANNELS 3 Zrotation Xrotation Yrotation
            End Site
            {
              OFFSET 1 0 0
            }
          }
          JOINT rightEye
          {
            OFFSET -3.6576 8.04674 8.04672
            CHANNELS 3 Zrotation Xrotation Yrotation
            End Site
            {
              OFFSET 1 0 0
            }
          }
        }
      }
      JOINT rCollar
      {
        OFFSET -2.68224 19.2634 -4.8768
        CHANNELS 3 Zrotation Xrotation Yrotation
        JOINT rShldr
        {
          OFFSET -8.77824 -1.95073 1.46304
          CHANNELS 3 Zrotation Xrotation Yrotation
          JOINT rForeArm
          {
            OFFSET -28.1742 -1.7115 0.48768
            CHANNELS 3 Zrotation Xrotation Yrotation
            JOINT rHand
            {
              OFFSET -22.5879 0.773209 7.07136
              CHANNELS 3 Zrotation Xrotation Yrotation
              JOINT rThumb1
              {
                OFFSET -1.2192 -0.487915 3.41376
                CHANNELS 3 Zrotation Xrotation Yrotation
                JOINT rThumb2
                {
                  OFFSET -3.37035 -0.52449 3.41376
                  CHANNELS 3 Zrotation Xrotation Yrotation
                  End Site
                  {
                    OFFSET -1.78271 -1.18214 1.43049
                  }
                }
              }
              JOINT rIndex1
              {
                OFFSET -7.75947 0.938293 5.60832
                CHANNELS 3 Zrotation Xrotation Yrotation
                JOINT rIndex2
                {
                  OFFSET -2.54057 -0.884171 1.56538
                  CHANNELS 3 Zrotation Xrotation Yrotation
                  End Site
                  {
                    OFFSET -1.62519 -0.234802 1.16502
                  }
                }
              }
              JOINT rMid1
              {
                OFFSET -8.24714 1.18213 3.41376
                CHANNELS 3 Zrotation Xrotation Yrotation
                JOINT rMid2
                {
                  OFFSET -3.10165 -0.590103 1.0647
                  CHANNELS 3 Zrotation Xrotation Yrotation
                  End Site
                  {
                    OFFSET -2.48547 -0.328903 0.83742
                  }
                }
              }
              JOINT rRing1
              {
                OFFSET -8.82822 0.546677 1.51678
                CHANNELS 3 Zrotation Xrotation Yrotation
                JOINT rRing2
                {
                  OFFSET -2.60934 -0.819778 -0.0198488
                  CHANNELS 3 Zrotation Xrotation Yrotation
                  End Site
                  {
                    OFFSET -2.33842 -0.294052 0.168128
                  }
                }
              }
              JOINT rPinky1
              {
                OFFSET -8.27202 -0.0477905 -0.4584
                CHANNELS 3 Zrotation Xrotation Yrotation
                JOINT rPinky2
                {
                  OFFSET -1.82734 -0.647385 -0.700984
                  CHANNELS 3 Zrotation Xrotation Yrotation
                  End Site
                  {
                    OFFSET -1.69225 -0.51767 -0.607171
                  }
                }
              }
            }
          }
        }
      }
      JOINT lCollar
      {
        OFFSET 2.68224 19.2634 -4.8768
        CHANNELS 3 Zrotation Xrotation Yrotation
        JOINT lShldr
        {
          OFFSET 8.77824 -1.95073 1.46304
          CHANNELS 3 Zrotation Xrotation Yrotation
          JOINT lForeArm
          {
            OFFSET 28.1742 -1.7115 0.48768
            CHANNELS 3 Zrotation Xrotation Yrotation
            JOINT lHand
            {
              OFFSET 22.5879 0.773209 7.07136
              CHANNELS 3 Zrotation Xrotation Yrotation
              JOINT lThumb1
              {
                OFFSET 1.2192 -0.487915 3.41376
                CHANNELS 3 Zrotation Xrotation Yrotation
                JOINT lThumb2
                {
                  OFFSET 3.37035 -0.52449 3.41376
                  CHANNELS 3 Zrotation Xrotation Yrotation
                  End Site
                  {
                    OFFSET 1.78271 -1.18214 1.43049
                  }
                }
              }
              JOINT lIndex1
              {
                OFFSET 7.75947 0.938293 5.60832
                CHANNELS 3 Zrotation Xrotation Yrotation
                JOINT lIndex2
                {
                  OFFSET 2.54057 -0.884171 1.56538
                  CHANNELS 3 Zrotation Xrotation Yrotation
                  End Site
                  {
                    OFFSET 1.62519 -0.234802 1.16502
                  }
                }
              }
              JOINT lMid1
              {
                OFFSET 8.24714 1.18213 3.41376
                CHANNELS 3 Zrotation Xrotation Yrotation
                JOINT lMid2
                {
                  OFFSET 3.10165 -0.590103 1.0647
                  CHANNELS 3 Zrotation Xrotation Yrotation
                  End Site
                  {
                    OFFSET 2.48547 -0.328903 0.83742
                  }
                }
              }
              JOINT lRing1
              {
                OFFSET 8.82822 0.546677 1.51678
                CHANNELS 3 Zrotation Xrotation Yrotation
                JOINT lRing2
                {
                  OFFSET 2.60934 -0.819778 -0.0198488
                  CHANNELS 3 Zrotation Xrotation Yrotation
                  End Site
                  {
                    OFFSET 2.33842 -0.294052 0.168128
                  }
                }
              }
              JOINT lPinky1
              {
                OFFSET 8.27202 -0.0477905 -0.4584
                CHANNELS 3 Zrotation Xrotation Yrotation
                JOINT lPinky2
                {
                  OFFSET 1.82734 -0.647385 -0.700984
                  CHANNELS 3 Zrotation Xrotation Yrotation
                  End Site
                  {
                    OFFSET 1.69225 -0.51767 -0.607171
                  }
                }
              }
            }
          }
        }
      }
    }
  }
  JOINT rButtock
  {
    OFFSET -8.77824 4.35084 1.2192
    CHANNELS 3 Zrotation Xrotation Yrotation
    JOINT rThigh
    {
      OFFSET 0 -1.70687 -2.19456
      CHANNELS 3 Zrotation Xrotation Yrotation
      JOINT rShin
      {
        OFFSET 0 -36.8199 0.73152
        CHANNELS 3 Zrotation Xrotation Yrotation
        JOINT rFoot
        {
          OFFSET 0.73152 -45.1104 -5.12064
          CHANNELS 3 Zrotation Xrotation Yrotation
          End Site
          {
            OFFSET -1.1221 -3.69964 12.103
          }
        }
      }
    }
  }
  JOINT lButtock
  {
    OFFSET 8.77824 4.35084 1.2192
    CHANNELS 3 Zrotation Xrotation Yrotation
    JOINT lThigh
    {
      OFFSET 0 -1.70687 -2.19456
      CHANNELS 3 Zrotation Xrotation Yrotation
      JOINT lShin
      {
        OFFSET 0 -36.8199 0.73152
        CHANNELS 3 Zrotation Xrotation Yrotation
        JOINT lFoot
        {
          OFFSET -0.73152 -45.1104 -5.12064
          CHANNELS 3 Zrotation Xrotation Yrotation
          End Site
          {
            OFFSET 1.1221 -3.69964 12.103
          }
        }
      }
    }
  }
}
MOTION
Frames:	6
Frame Time:	0.00833333
-202.924 78.4126 96.375 2.38046 0.0111362 -0.0455973 -3.1312 0.00208551 -0.0845031 -0.863229 0.0181966 -0.149331 1.4407e-014 -7.95139e-016 -1.2424e-015 4.42327e-014 3.18055e-015 -3.63093e-015 -0 0 0 -0 0 0 7.50425e-015 2.10044e-016 -2.48481e-016 1.57777e-013 4.42296e-015 -1.17283e-014 2.69632e-012 -6.29153e-013 -2.76708e-013 3.05974e-011 1.64248e-012 -2.55717e-012 7.22077e-011 2.19963e-012 -6.14165e-012 1.24688e-010 3.79758e-012 -1.06183e-011 7.22117e-011 2.20134e-012 -6.15119e-012 7.73091 5.47488 0.417314 7.22065e-011 2.19925e-012 -6.13529e-012 2.90554 0.965183 0.102902 7.22106e-011 2.19975e-012 -6.14642e-012 10.2786 0.731801 0.0259123 7.22004e-011 2.20253e-012 -6.14165e-012 2.22167 -0.733487 -0.20892 7.40508e-015 2.12373e-016 -6.4605e-016 1.53221e-013 4.7522e-015 -1.33186e-014 2.66088e-012 9.57148e-013 -2.67167e-013 3.0601e-011 6.11511e-014 -2.5508e-012 7.21457e-011 2.2075e-012 -6.13847e-012 1.24604e-010 3.81667e-012 -1.05928e-011 7.21421e-011 2.20929e-012 -6.12893e-012 -7.73091 5.47488 -0.417314 7.21452e-011 2.20721e-012 -6.14483e-012 -2.90554 0.965183 -0.102902 7.21376e-011 2.2075e-012 -6.13847e-012 -10.2786 0.731801 -0.0259123 7.21523e-011 2.21009e-012 -6.14483e-012 -2.22167 -0.733487 0.20892 -2.03217e-016 0 -3.88251e-019 -1.91872 -1.93503 0.0146235 -0.00850113 -2.07867 -0.0697656 -0.458731 4.00011 0.132469 2.03217e-016 0 3.88251e-019 -2.83816 -9.32627 0.32235 -0.00902535 11.3079 -0.235084 0.527277 -1.9951 -0.0183537 
-200.303 75.7395 85.5772 4.77263 -1.01049 -37.0107 -8.26328 4.51633 3.12951 -0.735613 0.284436 0.667361 -4.27504 2.24385 -2.66928 9.9399 -11.9864 -0.48353 -0 0 0 -0 0 0 1.75791e-013 4.28138e-014 -2.7094e-013 24.7873 17.8007 2.54476 -14.0233 -11.1453 14.2477 0.204724 -10.0897 -1.34053 6.15406e-011 8.66199e-010 1.32435e-009 7.29155e-011 1.56393e-009 2.28529e-009 6.15443e-011 8.662e-010 1.32433e-009 7.73091 5.47488 0.417314 6.15401e-011 8.66198e-010 1.32435e-009 2.90554 0.965183 0.102902 6.15457e-011 8.66198e-010 1.32434e-009 10.2786 0.731801 0.0259123 6.15361e-011 8.662e-010 1.32434e-009 2.22167 -0.733487 -0.20892 1.75656e-013 4.28213e-014 -2.7128e-013 -22.0857 8.94829 0.986738 22.7657 -20.6392 -14.9294 -4.01908 46.9929 -0.456937 3.22206e-010 -1.39315e-009 -3.83944e-011 4.90228e-010 -2.28941e-009 -1.22182e-010 3.22202e-010 -1.39315e-009 -3.83879e-011 -7.73091 5.47488 -0.417314 3.22205e-010 -1.39315e-009 -3.8399e-011 -2.90554 0.965183 -0.102902 3.22199e-010 -1.39315e-009 -3.83941e-011 -10.2786 0.731801 -0.0259123 3.22211e-010 -1.39314e-009 -3.83997e-011 -2.22167 -0.733487 0.20892 -2.03217e-016 0 -3.88251e-019 -7.31143 -10.657 -7.81071 0.0599355 17.748 0.205066 -1.41705 -1.75712 -5.14769 2.03217e-016 0 3.88251e-019 -0.712343 -10.9424 4.48752 -0.0360519 20.6956 -0.421266 1.43501 -4.33151 6.49796 
-199.553 75.6459 85.4474 6.34027 -0.624247 -76.1161 -14.2517 9.23966 6.62757 -0.609891 0.561178 1.54083 -8.58194 4.61773 -5.54105 20.252 -24.7162 -1.10634 -0 0 0 -0 0 0 3.69254e-013 8.7352e-014 -5.87499e-013 48.8531 36.625 6.29542 -22.7196 -20.5448 30.8932 -0.126151 -20.8196 -2.91512 5.13533e-011 1.87336e-009 2.84915e-009 1.74031e-011 3.3801e-009 4.91653e-009 5.13568e-011 1.87336e-009 2.84913e-009 7.73091 5.47488 0.417314 5.13536e-011 1.87336e-009 2.84914e-009 2.90554 0.965183 0.102902 5.13611e-011 1.87336e-009 2.84914e-009 10.2786 0.731801 0.0259123 5.1352e-011 1.87336e-009 2.84914e-009 2.22167 -0.733487 -0.20892 3.69081e-013 8.73654e-014 -5.87775e-013 -45.7378 18.3321 2.14137 33.1806 -37.4513 -37.2026 165.681 83.2462 -174.6 6.14126e-010 -2.99358e-009 -7.90439e-011 9.17491e-010 -4.92078e-009 -2.5643e-010 6.14122e-010 -2.99358e-009 -7.9041e-011 -7.73091 5.47488 -0.417314 6.14126e-010 -2.99357e-009 -7.90467e-011 -2.90554 0.965183 -0.102902 6.1412e-010 -2.99358e-009 -7.90434e-011 -10.2786 0.731801 -0.0259123 6.14131e-010 -2.99357e-009 -7.90481e-011 -2.22167 -0.733487 0.20892 -2.03217e-016 0 -3.88251e-019 -15.6436 -19.241 -16.7925 -0.123094 38.7304 0.609743 -3.59033 -7.76598 -10.8115 2.03217e-016 0 3.88251e-019 1.7776 -12.6328 8.92654 0.0151497 30.6411 -0.656305 2.9652 -6.66381 13.417 
-198.77 75.528 85.2867 8.27466 1.36258 -110.878 -20.0746 13.3743 9.79656 -0.503146 0.816314 2.30096 -12.1965 6.67295 -8.05663 29.0917 -35.9478 -1.75287 -0 0 0 -0 0 0 5.12365e-013 1.28021e-013 -8.12323e-013 67.0111 52.8349 12.0891 -25.8615 -24.9052 47.4425 -0.989634 -30.1974 -4.58227 4.02062e-011 2.5942e-009 3.98532e-009 -3.06303e-011 4.68419e-009 6.87712e-009 4.02096e-011 2.5942e-009 3.9853e-009 7.73091 5.47488 0.417314 4.02072e-011 2.5942e-009 3.98531e-009 2.90554 0.965183 0.102902 4.0216e-011 2.5942e-009 3.98531e-009 10.2786 0.731801 0.0259123 4.02074e-011 2.5942e-009 3.98531e-009 2.22167 -0.733487 -0.20892 5.12158e-013 1.28039e-013 -8.12547e-013 -67.2759 26.811 3.27676 30.7035 -41.9778 -63.8349 166.183 39.0124 -178.797 8.22326e-010 -4.18386e-009 -1.02906e-010 1.22148e-009 -6.87587e-009 -3.4536e-010 8.22321e-010 -4.18385e-009 -1.02906e-010 -7.73091 5.47488 -0.417314 8.22325e-010 -4.18385e-009 -1.02907e-010 -2.90554 0.965183 -0.102902 8.2232e-010 -4.18386e-009 -1.02905e-010 -10.2786 0.731801 -0.0259123 8.2233e-010 -4.18385e-009 -1.02909e-010 -2.22167 -0.733487 0.20892 -2.03217e-016 0 -3.88251e-019 -25.6886 -25.9471 -25.8178 -0.754826 57.3945 1.34621 -6.53544 -12.7884 -16.1102 2.03217e-016 0 3.88251e-019 4.25485 -13.923 12.9685 0.149342 39.4685 -0.93425 4.82319 -8.56406 19.7033 
-197.999 75.3937 85.0854 10.5819 3.35711 -134.941 -24.3564 16.2083 11.9098 -0.427922 1.01803 2.7775 -14.5457 7.99193 -9.63203 34.9001 -43.4485 -2.11859 -0 0 0 -0 0 0 5.29596e-013 1.59018e-013 -8.07811e-013 76.2966 63.0571 18.9768 -26.5571 -24.9572 59.2141 -1.93982 -36.267 -5.91845 2.66595e-011 2.59923e-009 4.14992e-009 -5.99662e-011 4.70806e-009 7.1611e-009 2.66634e-011 2.59923e-009 4.14989e-009 7.73091 5.47488 0.417314 2.66608e-011 2.59923e-009 4.1499e-009 2.90554 0.965183 0.102902 2.667e-011 2.59923e-009 4.14991e-009 10.2786 0.731801 0.0259123 2.66616e-011 2.59923e-009 4.14991e-009 2.22167 -0.733487 -0.20892 5.29365e-013 1.59036e-013 -8.0801e-013 -82.7476 33.0637 4.05769 28.3491 -37.8014 -80.0652 163.912 8.44143 -178.805 8.21222e-010 -4.34876e-009 -8.48e-011 1.21727e-009 -7.14025e-009 -3.20995e-010 8.21217e-010 -4.34876e-009 -8.48e-011 -7.73091 5.47488 -0.417314 8.21222e-010 -4.34875e-009 -8.48e-011 -2.90554 0.965183 -0.102902 8.21218e-010 -4.34876e-009 -8.47992e-011 -10.2786 0.731801 -0.0259123 8.21226e-010 -4.34876e-009 -8.48031e-011 -2.22167 -0.733487 0.20892 -2.03217e-016 0 -3.88251e-019 -34.515 -29.9931 -32.7754 -2.04315 70.2662 2.66171 -9.10631 -15.8369 -20.0381 2.03217e-016 0 3.88251e-019 6.15441 -14.4218 15.8903 0.310948 45.5027 -1.20229 6.42087 -9.77449 24.2601 
-197.274 75.1882 84.8592 11.7294 4.27508 -144.077 -25.9987 17.3415 12.4105 -0.393551 1.15228 2.86426 -15.3602 8.34153 -9.8671 36.9985 -45.7549 -1.75177 -0 0 0 -0 0 0 3.37243e-013 1.74611e-013 -4.19087e-013 80.9744 65.6198 20.3354 -26.773 -24.3281 63.8218 -2.24897 -37.6033 -6.27029 4.84814e-012 1.35974e-009 2.66522e-009 -6.51503e-011 2.50957e-009 4.59876e-009 4.85329e-012 1.35975e-009 2.6652e-009 7.73091 5.47488 0.417314 4.84937e-012 1.35974e-009 2.66521e-009 2.90554 0.965183 0.102902 4.85712e-012 1.35974e-009 2.66522e-009 10.2786 0.731801 0.0259123 4.84849e-012 1.35974e-009 2.66522e-009 2.22167 -0.733487 -0.20892 3.36998e-013 1.74623e-013 -4.19304e-013 -89.3173 36.2108 4.12595 28.3021 -34.6955 -84.3236 163.056 -2.72005 -178.609 4.65304e-010 -2.80234e-009 3.20307e-011 6.91009e-010 -4.57861e-009 -6.18398e-011 4.65299e-010 -2.80234e-009 3.20344e-011 -7.73091 5.47488 -0.417314 4.65304e-010 -2.80233e-009 3.20311e-011 -2.90554 0.965183 -0.102902 4.65299e-010 -2.80234e-009 3.20314e-011 -10.2786 0.731801 -0.0259123 4.65306e-010 -2.80233e-009 3.20266e-011 -2.22167 -0.733487 0.20892 -2.03217e-016 0 -3.88251e-019 -39.144 -31.8461 -35.59 -3.12603 75.0675 3.7444 -10.1082 -16.4355 -21.7511 2.03217e-016 0 3.88251e-019 7.01397 -13.9455 17.1928 0.385601 47.6189 -1.35818 7.19588 -10.2816 26.3039 
